<!-- <svg width="15" height="15" viewBox="0 0 15 15" fill="none" xmlns="http://www.w3.org/2000/svg"><path d="M1.84998 7.49998C1.84998 7.21321 1.87134 6.93143 1.91256 6.65615L9.56374 2.23875C9.86311 2.35627 10.15 2.49861 10.4219 2.66322L3.77065 6.50332C3.73669 6.52183 3.70482 6.5449 3.67602 6.57238C3.5911 6.65308 3.54245 6.76286 3.53682 6.87658C3.53359 6.9418 3.54451 7.00831 3.57086 7.07137C3.58927 7.1157 3.6149 7.15742 3.64744 7.19458C3.67306 7.22396 3.702 7.24941 3.73337 7.27069L7.32533 9.83813L3.87232 11.8317C2.63604 10.7953 1.84998 9.23944 1.84998 7.49998ZM8.36843 10.2751C8.37682 10.2706 8.38509 10.2659 8.39322 10.2608L9.84091 9.42499C9.84706 9.42163 9.85314 9.41812 9.85915 9.41446L11.3101 8.57677C11.3655 8.54649 11.4154 8.504 11.4554 8.44995C11.6034 8.25031 11.5616 7.96848 11.362 7.82046L7.82779 5.20017L11.2161 3.24393C12.4013 4.27963 13.15 5.80237 13.15 7.49998C13.15 7.83546 13.1207 8.16411 13.0647 8.48353L5.56875 12.8113C5.26138 12.6995 4.96646 12.5618 4.68662 12.4008L8.36843 10.2751ZM8.18149 9.34383L4.81659 6.93868L5.50918 6.53881L8.80604 8.98324L8.18149 9.34383ZM6.35875 6.04832L6.97822 5.69067L10.2751 8.13506L9.6556 8.49275L6.35875 6.04832ZM8.3318 1.91078L2.24263 5.42636C3.06941 3.33188 5.11164 1.84998 7.49998 1.84998C7.78258 1.84998 8.06033 1.87072 8.3318 1.91078ZM6.84684 13.1126C7.06114 13.1373 7.27908 13.15 7.49998 13.15C9.8246 13.15 11.8213 11.7461 12.6886 9.7399L6.84684 13.1126ZM7.49998 0.849976C3.82728 0.849976 0.849976 3.82728 0.849976 7.49998C0.849976 11.1727 3.82728 14.15 7.49998 14.15C11.1727 14.15 14.15 11.1727 14.15 7.49998C14.15 3.82728 11.1727 0.849976 7.49998 0.849976Z" fill="currentColor" fill-rule="evenodd" clip-rule="evenodd"></path></svg> -->
<svg width="14" height="18" viewBox="0 0 14 18" fill="none" xmlns="http://www.w3.org/2000/svg">
<rect x="1" width="12" height="12" rx="1" fill="black"/>
<g filter="url(#filter0_d_53_18)">
<path d="M4.71883 2.2C4.39883 2.2 4.23883 3.5 4.23883 6.1C4.23883 8.7 4.39883 10 4.71883 10C5.03883 10 5.19883 9.14 5.19883 7.42C5.19883 5.716 5.41883 5.716 5.85883 7.42C6.30683 9.14 6.68683 10 6.99883 10C7.31083 10 7.69083 9.148 8.13883 7.444C8.57883 5.756 8.79883 5.756 8.79883 7.444C8.79883 9.148 8.95883 10 9.27883 10C9.59883 10 9.75883 8.7 9.75883 6.1C9.75883 3.5 9.59883 2.2 9.27883 2.2C8.95883 2.2 8.49883 3.284 7.89883 5.452C7.29883 7.62 6.69883 7.62 6.09883 5.452C5.49883 3.284 5.03883 2.2 4.71883 2.2Z" fill="white"/>
</g>
<defs>
<filter id="filter0_d_53_18" x="0.238831" y="2.20001" width="13.52" height="15.8" filterUnits="userSpaceOnUse" color-interpolation-filters="sRGB">
<feFlood flood-opacity="0" result="BackgroundImageFix"/>
<feColorMatrix in="SourceAlpha" type="matrix" values="0 0 0 0 0 0 0 0 0 0 0 0 0 0 0 0 0 0 127 0" result="hardAlpha"/>
<feOffset dy="4"/>
<feGaussianBlur stdDeviation="2"/>
<feComposite in2="hardAlpha" operator="out"/>
<feColorMatrix type="matrix" values="0 0 0 0 0 0 0 0 0 0 0 0 0 0 0 0 0 0 0.25 0"/>
<feBlend mode="normal" in2="BackgroundImageFix" result="effect1_dropShadow_53_18"/>
<feBlend mode="normal" in="SourceGraphic" in2="effect1_dropShadow_53_18" result="shape"/>
</filter>
</defs>
</svg>
