<svg width="54" height="12" viewBox="0 0 54 12" fill="none" xmlns="http://www.w3.org/2000/svg">
<rect width="54" height="12" rx="1" fill="black"/>
<path d="M9.4882 2.2C9.8082 2.2 9.9682 3.5 9.9682 6.1C9.9682 8.7 9.8082 10 9.4882 10C9.1682 10 9.0082 9.14 9.0082 7.42C9.0082 5.716 8.7882 5.716 8.3482 7.42C7.9002 9.14 7.5202 10 7.2082 10C6.8962 10 6.5162 9.148 6.0682 7.444C5.6282 5.756 5.4082 5.756 5.4082 7.444C5.4082 9.148 5.2482 10 4.9282 10C4.6082 10 4.4482 8.7 4.4482 6.1C4.4482 3.5 4.6082 2.2 4.9282 2.2C5.2482 2.2 5.7082 3.284 6.3082 5.452C6.9082 7.62 7.5082 7.62 8.1082 5.452C8.7082 3.284 9.1682 2.2 9.4882 2.2ZM15.8699 4C16.1899 4 16.3499 5 16.3499 7C16.3499 9 16.2059 10 15.9179 10C15.6299 10 15.4779 9.956 15.4619 9.868L15.3899 9.052V8.404C15.3899 8.268 15.3739 8.24 15.3419 8.32C15.3099 8.4 15.2619 8.588 15.1979 8.884L14.2379 10.12H12.7499L11.7059 9.328L11.1179 7.912V6.112L11.7179 4.684L12.8219 3.88H14.3339L15.2219 4.912C15.2779 5.192 15.3179 5.332 15.3419 5.332C15.3739 5.324 15.3899 5.172 15.3899 4.876C15.3899 4.292 15.5499 4 15.8699 4ZM14.4899 9.196L15.3899 7.96V6.004L14.4899 4.816H12.8459L12.0779 5.992V7.996L12.9059 9.196H14.4899ZM21.5915 4.9C20.7995 4.9 20.4035 5.408 20.4035 6.424V8.596L20.9795 9.112C21.1475 9.104 21.3275 9.1 21.5195 9.1C21.7115 9.1 21.9155 9.1 22.1315 9.1C22.5555 9.1 22.7675 9.248 22.7675 9.544C22.7675 9.848 22.5555 10 22.1315 10H20.5355L19.4435 8.992V6.424C19.4435 5.408 19.1915 4.9 18.6875 4.9C18.1755 4.9 17.9195 4.748 17.9195 4.444C17.9195 4.148 18.1755 4 18.6875 4C19.1915 4 19.4435 3.74 19.4435 3.22C19.4435 2.7 19.6035 2.44 19.9235 2.44C20.2435 2.44 20.4035 2.7 20.4035 3.22C20.4035 3.74 20.7995 4 21.5915 4C22.3755 4 22.7675 4.148 22.7675 4.444C22.7675 4.748 22.3755 4.9 21.5915 4.9ZM28.1892 4.9C27.3972 4.9 27.0012 5.408 27.0012 6.424V8.596L27.5772 9.112C27.7452 9.104 27.9252 9.1 28.1172 9.1C28.3092 9.1 28.5132 9.1 28.7292 9.1C29.1532 9.1 29.3652 9.248 29.3652 9.544C29.3652 9.848 29.1532 10 28.7292 10H27.1332L26.0412 8.992V6.424C26.0412 5.408 25.7892 4.9 25.2852 4.9C24.7732 4.9 24.5172 4.748 24.5172 4.444C24.5172 4.148 24.7732 4 25.2852 4C25.7892 4 26.0412 3.74 26.0412 3.22C26.0412 2.7 26.2012 2.44 26.5212 2.44C26.8412 2.44 27.0012 2.7 27.0012 3.22C27.0012 3.74 27.3972 4 28.1892 4C28.9732 4 29.3652 4.148 29.3652 4.444C29.3652 4.748 28.9732 4.9 28.1892 4.9ZM36.5028 3.88V8.008C36.5028 9.336 36.3428 10 36.0228 10C35.7028 10 35.5428 9.316 35.5428 7.948V5.344L35.2908 4.84H34.4268C34.2028 5.616 34.0908 6.672 34.0908 8.008C34.0908 9.336 33.9388 10 33.6348 10C33.3308 10 33.1788 9.316 33.1788 7.948V5.332L32.9628 4.84H32.2548L31.7748 5.824C31.7348 6.024 31.7028 6.324 31.6788 6.724C31.6628 7.124 31.6548 7.62 31.6548 8.212C31.6548 9.404 31.4948 10 31.1748 10C30.8548 10 30.6948 9 30.6948 7C30.6948 5 30.8548 4 31.1748 4C31.4948 4 31.6548 4.284 31.6548 4.852C31.6548 5.404 31.7068 5.456 31.8108 5.008L32.4588 3.88H33.6828C33.8508 4.4 33.9708 4.736 34.0428 4.888C34.1228 5.04 34.1908 5.012 34.2468 4.804L34.8708 3.88H36.5028ZM42.2605 4C42.5805 4 42.7405 5 42.7405 7C42.7405 9 42.5965 10 42.3085 10C42.0205 10 41.8685 9.956 41.8525 9.868L41.7805 9.052V8.404C41.7805 8.268 41.7645 8.24 41.7325 8.32C41.7005 8.4 41.6525 8.588 41.5885 8.884L40.6285 10.12H39.1405L38.0965 9.328L37.5085 7.912V6.112L38.1085 4.684L39.2125 3.88H40.7245L41.6125 4.912C41.6685 5.192 41.7085 5.332 41.7325 5.332C41.7645 5.324 41.7805 5.172 41.7805 4.876C41.7805 4.292 41.9405 4 42.2605 4ZM40.8805 9.196L41.7805 7.96V6.004L40.8805 4.816H39.2365L38.4685 5.992V7.996L39.2965 9.196H40.8805ZM47.8381 3.88L48.7261 4.276L49.3381 5.236V8.008C49.3381 9.336 49.1781 10 48.8581 10C48.5381 10 48.3781 9.376 48.3781 8.128V4.84H46.2301L45.3781 5.872C45.2661 6.304 45.2101 7.096 45.2101 8.248C45.2101 9.416 45.0501 10 44.7301 10C44.4101 10 44.2501 9 44.2501 7C44.2501 5 44.4101 4 44.7301 4C45.0501 4 45.2101 4.296 45.2101 4.888C45.2101 5.488 45.2821 5.556 45.4261 5.092L46.5061 3.88H47.8381Z" fill="white"/>
</svg>
